<svg width="64" height="64" viewBox="0 0 64 64" fill="none" xmlns="http://www.w3.org/2000/svg">
    <g filter="url(#filter0_d_16_849)">
        <path
            d="M7 30C7 16.1929 18.1929 5 32 5C45.8071 5 57 16.1929 57 30C57 43.8071 45.8071 55 32 55C18.1929 55 7 43.8071 7 30Z"
            fill="white" shape-rendering="crispEdges" />
        <path
            d="M33.6446 29.999L38.66 24.9953C38.8796 24.7756 39.003 24.4778 39.003 24.1671C39.003 23.8565 38.8796 23.5587 38.66 23.339C38.4404 23.1194 38.1425 22.996 37.8319 22.996C37.5213 22.996 37.2234 23.1194 37.0037 23.339L32 28.3544L26.9963 23.339C26.7766 23.1194 26.4787 22.996 26.1681 22.996C25.8575 22.996 25.5596 23.1194 25.34 23.339C25.1204 23.5587 24.997 23.8565 24.997 24.1671C24.997 24.4778 25.1204 24.7756 25.34 24.9953L30.3554 29.999L25.34 35.0028C25.2307 35.1112 25.1439 35.2402 25.0847 35.3823C25.0255 35.5244 24.995 35.6769 24.995 35.8309C24.995 35.9848 25.0255 36.1373 25.0847 36.2794C25.1439 36.4216 25.2307 36.5506 25.34 36.659C25.4484 36.7683 25.5774 36.8551 25.7196 36.9143C25.8617 36.9735 26.0142 37.004 26.1681 37.004C26.3221 37.004 26.4746 36.9735 26.6167 36.9143C26.7588 36.8551 26.8878 36.7683 26.9963 36.659L32 31.6436L37.0037 36.659C37.1122 36.7683 37.2412 36.8551 37.3833 36.9143C37.5254 36.9735 37.6779 37.004 37.8319 37.004C37.9858 37.004 38.1383 36.9735 38.2804 36.9143C38.4226 36.8551 38.5516 36.7683 38.66 36.659C38.7693 36.5506 38.8561 36.4216 38.9153 36.2794C38.9745 36.1373 39.005 35.9848 39.005 35.8309C39.005 35.6769 38.9745 35.5244 38.9153 35.3823C38.8561 35.2402 38.7693 35.1112 38.66 35.0028L33.6446 29.999Z"
            fill="#262626" />
    </g>
    <defs>
        <filter id="filter0_d_16_849" x="0" y="0" width="64" height="64" filterUnits="userSpaceOnUse"
            color-interpolation-filters="sRGB">
            <feFlood flood-opacity="0" result="BackgroundImageFix" />
            <feColorMatrix in="SourceAlpha" type="matrix" values="0 0 0 0 0 0 0 0 0 0 0 0 0 0 0 0 0 0 127 0"
                result="hardAlpha" />
            <feOffset dy="2" />
            <feGaussianBlur stdDeviation="3.5" />
            <feComposite in2="hardAlpha" operator="out" />
            <feColorMatrix type="matrix" values="0 0 0 0 0.0392157 0 0 0 0 0.0392157 0 0 0 0 0.0392157 0 0 0 0.07 0" />
            <feBlend mode="normal" in2="BackgroundImageFix" result="effect1_dropShadow_16_849" />
            <feBlend mode="normal" in="SourceGraphic" in2="effect1_dropShadow_16_849" result="shape" />
        </filter>
    </defs>
</svg>