<svg width="24" height="24" viewBox="0 0 26 24" fill="none" xmlns="http://www.w3.org/2000/svg">
    <path fill-rule="evenodd" clip-rule="evenodd"
        d="M24.2091 4.32437C24.9868 4.5159 25.4627 5.30523 25.2654 6.08295L21.7134 20.2329C21.5509 20.8771 20.9763 21.3298 20.3089 21.3298C20.1928 21.3298 20.0709 21.3124 19.9548 21.2834L10.4713 18.9038C10.094 18.8109 9.7748 18.5729 9.57747 18.2421C9.38014 17.9113 9.3221 17.5224 9.41496 17.1452L12.9669 2.99528C13.1295 2.35105 13.704 1.89835 14.3715 1.89835C14.4876 1.89835 14.6094 1.91576 14.7255 1.94478L24.2091 4.32437ZM7.52514 16.9362C7.21753 18.1782 7.97204 19.4377 9.21407 19.7511L11.6169 20.3489L7.06083 22.0146C6.89832 22.0727 6.73 22.1017 6.56169 22.1017C5.95228 22.1017 5.40672 21.7186 5.19778 21.1498L0.781011 9.07773C0.647521 8.71209 0.659129 8.31742 0.827442 7.96919C0.995755 7.62096 1.28595 7.35398 1.64579 7.22049L9.60293 4.30693C9.76544 4.24889 9.93375 4.21987 10.1021 4.21987C10.3052 4.21987 10.5025 4.26631 10.6825 4.34756L7.52514 16.9362Z"
        fill="#DEDEDE" />
</svg>