<svg width="36" height="36" viewBox="0 0 36 36" fill="none" xmlns="http://www.w3.org/2000/svg">
    <path fill-rule="evenodd" clip-rule="evenodd"
        d="M30.8466 22.5357C31.6235 23.0574 32.3228 23.6457 32.9333 24.3006C33.1997 24.5781 33.1775 25.0221 32.8889 25.2996C32.6225 25.5549 32.1674 25.5327 31.9121 25.2663C31.4015 24.7113 30.8244 24.2118 30.1806 23.7789C29.7477 24.456 29.2371 25.1109 28.6377 25.7103C29.6145 26.6538 30.4581 27.6749 31.1684 28.7516C31.2683 28.907 31.3016 29.0957 31.2683 29.2733C31.235 29.462 31.1241 29.6174 30.9687 29.7173C30.8577 29.7839 30.7245 29.8283 30.5913 29.8283C30.3582 29.8283 30.1473 29.7173 30.0141 29.5175C29.337 28.4852 28.5267 27.5196 27.6165 26.6427C27.5635 26.6824 27.5074 26.7253 27.4487 26.7701C27.2614 26.9132 27.0481 27.0762 26.8284 27.2199C24.9525 28.4519 22.6215 29.1623 19.9021 29.3177C16.6054 29.5064 12.3652 29.4509 8.97975 27.2199C8.74908 27.0731 8.53821 26.9065 8.3378 26.7481C8.32605 26.7388 8.31434 26.7296 8.30266 26.7204C7.41466 27.5861 6.62657 28.5185 5.98278 29.5064C5.77188 29.8172 5.32788 29.906 5.01709 29.7062C4.86169 29.5952 4.75069 29.4398 4.71739 29.2622C4.68409 29.0846 4.71739 28.8959 4.81729 28.7405C5.49438 27.7082 6.30467 26.7204 7.24817 25.7991C6.64877 25.1997 6.11598 24.5559 5.67198 23.8677C5.08369 24.2895 4.53979 24.7557 4.07359 25.2552C3.8183 25.5216 3.3743 25.5438 3.0968 25.2885C2.81931 25.0332 2.80821 24.5892 3.0635 24.3117C3.6407 23.7012 4.28449 23.1351 5.00599 22.6467C4.40659 21.3813 4.07359 20.1048 4.007 18.8283C3.9071 16.7637 4.46209 14.788 5.08369 12.79C5.09065 12.7663 5.0983 12.7409 5.10631 12.7143C5.16215 12.5291 5.23491 12.2877 5.20578 12.1906C5.19468 12.1462 5.15028 12.0574 5.10589 11.9908C5.10589 11.9797 5.05039 11.8687 5.05039 11.8687C4.40659 10.57 4.11799 8.51653 5.01709 7.07354C5.0225 7.06493 5.02793 7.05628 5.03337 7.04762C5.27325 6.66555 5.54024 6.24031 6.09378 6.20775H6.19368H6.24917C6.36572 6.20775 6.4795 6.20497 6.59327 6.2022C6.70705 6.19942 6.82082 6.19665 6.93737 6.19665C7.34807 6.17445 7.68106 6.17445 8.02516 6.18555C9.47925 6.22995 10.9111 6.64065 12.1654 7.37324C13.9192 6.57405 15.9061 6.22995 17.9152 6.36315C19.9021 6.22995 21.8889 6.57405 23.6427 7.37324C24.897 6.64065 26.3289 6.22995 27.783 6.18555C28.0582 6.16887 28.3335 6.17099 28.604 6.17307C28.6935 6.17376 28.7825 6.17445 28.8708 6.17445C29.1483 6.18555 29.4258 6.18555 29.6922 6.18555C30.4248 6.18555 30.8244 7.04024 30.9576 7.32884C31.2462 7.95043 31.3127 8.63863 31.346 9.10482C31.3904 10.0039 31.1462 10.7365 30.8799 11.5135L30.7689 11.8354C30.7689 11.8484 30.746 11.8881 30.7271 11.9209C30.7137 11.9442 30.7023 11.964 30.7023 11.9686C30.6579 12.0463 30.6135 12.1462 30.6024 12.1795C30.5802 12.3016 30.669 12.6013 30.7245 12.7789C31.346 14.788 31.901 16.7526 31.8011 18.8172C31.7345 20.0604 31.4126 21.3147 30.8466 22.5357ZM25.7184 21.3258C25.785 20.9373 26.1513 20.7042 26.5287 20.7708C27.4167 20.9373 28.3047 21.2148 29.1483 21.6033C29.5701 20.6487 29.8143 19.683 29.8587 18.7284C29.9475 16.9857 29.4369 15.1987 28.8708 13.3672C28.7376 12.9454 28.56 12.3571 28.7265 11.7022C28.7931 11.4469 28.9041 11.2249 28.9929 11.0695C29.448 10.1482 29.5146 9.06042 29.1594 8.13913H29.0595H28.8042H28.7265C28.4379 8.12803 28.1493 8.11693 27.8496 8.12803C26.5842 8.17243 25.2966 8.58313 24.2421 9.28242C23.9535 9.48222 23.565 9.50442 23.2542 9.33792C22.1331 8.76073 20.9121 8.41663 19.6024 8.32783C18.2149 8.22793 16.8607 8.16133 15.5176 8.37223C14.452 8.54983 13.453 8.87172 12.5539 9.33792C12.2431 9.49332 11.8546 9.48222 11.566 9.28242C10.5115 8.58313 9.23505 8.17243 7.95856 8.12803C7.65886 8.11693 7.34807 8.11693 7.04837 8.13913H7.00397H6.74867H6.64877C6.30467 9.04932 6.34907 10.1371 6.78197 10.9918C6.90407 11.2249 7.01507 11.4469 7.08167 11.7022C7.2544 12.3391 7.08064 12.9026 6.94844 13.3313C6.94471 13.3433 6.94102 13.3553 6.93737 13.3672C6.37127 15.1987 5.87178 16.9857 5.94948 18.7395C5.99388 19.7274 6.24918 20.7153 6.69317 21.6921C7.59226 21.2703 8.52465 20.9595 9.46815 20.7819C9.84554 20.7153 10.2007 20.9595 10.2784 21.3369C10.345 21.7143 10.1008 22.0695 9.72344 22.1472C8.92425 22.3026 8.13616 22.5579 7.35917 22.9131C7.74766 23.4903 8.20276 24.0342 8.72445 24.5337C9.55695 23.8677 10.2784 23.3793 10.9888 22.9686C11.1442 22.8798 11.3329 22.8576 11.5105 22.902C11.6881 22.9575 11.8435 23.0685 11.9323 23.235C12.0211 23.3904 12.0433 23.5791 11.9989 23.7567C11.9545 23.9343 11.8435 24.0897 11.677 24.1785C11.0887 24.5115 10.5004 24.9111 9.82334 25.4328L10.0564 25.5993C11.2219 26.3652 12.6205 26.8869 14.3188 27.1755C17.5933 27.7415 22.233 27.9302 25.7739 25.5993C25.8294 25.5604 25.8821 25.5188 25.9349 25.4772C25.9876 25.4355 26.0403 25.3939 26.0958 25.3551C25.4742 24.8889 24.897 24.5004 24.3309 24.1785C24.1755 24.0786 24.0534 23.9343 24.009 23.7567C23.9646 23.5791 23.9868 23.3904 24.0756 23.235C24.1644 23.0685 24.3198 22.9464 24.4974 22.902C24.675 22.8576 24.8637 22.8798 25.0191 22.9686C25.6962 23.3571 26.3844 23.8344 27.1725 24.4449C27.6831 23.9454 28.1271 23.4015 28.4934 22.8354C27.7719 22.5135 27.0282 22.2804 26.2734 22.1361C25.896 22.0695 25.6518 21.7032 25.7184 21.3258ZM7.63667 8.70523C8.20276 8.78293 8.74666 8.97162 9.23505 9.24912C9.37935 9.33792 9.47925 9.47112 9.49035 9.63762C9.52365 9.80412 9.47925 9.97062 9.36825 10.0927L8.52466 11.0917C8.42476 11.2249 8.26936 11.2915 8.10286 11.2915C7.96966 11.2915 7.84757 11.2471 7.74767 11.1583C7.63667 11.0584 7.57007 10.9252 7.54787 10.7809C7.53677 10.6366 7.58117 10.4923 7.68107 10.3702L8.05846 9.92622C7.88087 9.87072 7.69217 9.82632 7.50347 9.80412C7.19267 9.77082 6.98177 9.48222 7.02617 9.18252C7.05947 8.88283 7.33697 8.67193 7.63667 8.70523ZM23.0875 19.3611C22.5658 18.6063 22.5436 17.7072 23.0542 17.352C23.5648 17.0079 24.3973 17.3298 24.9301 18.0735C25.4518 18.8283 25.474 19.7274 24.9634 20.0826C24.4528 20.4378 23.6203 20.1159 23.0875 19.3611ZM10.8556 20.0938C10.345 19.7386 10.3561 18.8395 10.8889 18.0847C11.4106 17.3299 12.2542 17.008 12.7648 17.3632C13.2754 17.7184 13.2643 18.6175 12.7315 19.3723C12.1987 20.1271 11.3662 20.4489 10.8556 20.0938ZM21.3115 21.4701C21.0118 21.4146 20.7232 21.5922 20.6677 21.8586C20.6011 22.1694 20.3236 22.3026 20.1682 22.347C19.8352 22.4469 19.4467 22.3914 19.2025 22.2027C18.925 21.9918 18.8029 21.57 18.8251 20.9928C19.258 20.793 19.5577 20.46 19.5577 20.0604C19.5577 19.4499 18.8917 18.9504 18.0814 18.9504C17.2711 18.9504 16.6051 19.4499 16.6051 20.0604C16.6051 20.46 16.9048 20.8041 17.3377 20.9928C17.3599 21.5811 17.2378 21.9918 16.9492 22.2027C16.705 22.3914 16.3165 22.4469 15.9835 22.347C15.8281 22.3026 15.5506 22.1694 15.484 21.8586C15.4285 21.5922 15.1288 21.4146 14.8402 21.4701C14.5405 21.5256 14.3408 21.7809 14.3963 22.0473C14.5183 22.6356 14.9623 23.0796 15.6172 23.2905C15.8392 23.3571 16.0834 23.4015 16.3165 23.4015C16.8049 23.4015 17.2933 23.2572 17.6707 22.9686C17.8372 22.8465 17.9704 22.6911 18.0814 22.5246C18.1924 22.6911 18.3256 22.8465 18.4921 22.9686C18.8584 23.2461 19.3468 23.4015 19.8463 23.4015C20.0794 23.4015 20.3236 23.3682 20.5456 23.2905C21.2005 23.0907 21.6445 22.6356 21.7666 22.0473C21.811 21.7809 21.6112 21.5256 21.3115 21.4701ZM28.7928 9.18252C28.7484 8.88283 28.4709 8.67193 28.1712 8.70523C27.6162 8.78293 27.0612 8.97162 26.584 9.24912C26.4397 9.33792 26.3398 9.47112 26.3176 9.63762C26.2843 9.80412 26.3287 9.97062 26.4397 10.0927L27.2832 11.0917C27.3942 11.2138 27.5385 11.2915 27.705 11.2915C27.8382 11.2915 27.9603 11.2471 28.0602 11.1583C28.1712 11.0584 28.2378 10.9252 28.26 10.7809C28.2711 10.6366 28.2267 10.4923 28.1268 10.3702L27.7494 9.92622C27.9381 9.87072 28.1157 9.82632 28.3044 9.80412C28.6152 9.77082 28.8261 9.48222 28.7928 9.18252Z"
        fill="#262626" />
</svg>