<svg width="24" height="24" viewBox="0 0 26 24" fill="none" xmlns="http://www.w3.org/2000/svg">
    <path fill-rule="evenodd" clip-rule="evenodd"
        d="M3.86714 12.0067C3.22218 12.046 2.57405 12.0781 1.93203 12.0712C1.65691 12.0676 1.37916 11.9861 1.12816 11.8928C0.65868 11.7214 0.519727 11.4093 0.713475 10.947C0.826277 10.6724 0.986852 10.4043 1.175 10.1645C1.90342 9.23758 2.83731 8.50338 3.80176 7.809C5.88321 6.31173 8.14325 5.11958 10.5554 4.02426C13.1104 2.91874 15.7852 1.9287 18.6043 1.445C19.389 1.31087 20.1883 1.27249 20.981 1.23442L21.0582 1.23071C21.3788 1.21623 21.7094 1.28697 22.0121 1.37656C22.597 1.54783 22.7766 1.90806 22.4999 2.44798C22.292 2.85465 22.0074 3.23778 21.7056 3.59655C21.4765 3.86946 21.2048 4.11194 20.9337 4.35386C20.876 4.40535 20.8183 4.45682 20.7611 4.50855C20.6727 4.58849 20.5424 4.65081 20.4242 4.67349C16.9365 5.316 13.6377 6.54113 10.4425 8.08552C8.27273 9.1349 6.227 10.3812 4.3136 11.8336C4.19236 11.926 4.01699 11.9977 3.86714 12.0067ZM23.1663 3.10027L23.3736 3.56574C23.466 3.77321 23.5574 3.98145 23.6489 4.18977C23.8712 4.69597 24.0937 5.20265 24.3302 5.69987C24.4915 6.03831 24.4588 6.35845 24.2823 6.69136C23.9216 7.36909 23.3715 7.90462 22.7928 8.41441C21.4572 9.59029 19.982 10.5869 18.4046 11.426C18.042 11.6195 17.6786 11.8112 17.3136 11.9993C18.3448 12.3907 19.2253 13.1782 19.7097 14.2661C20.6744 16.4329 19.6999 18.9717 17.5331 19.9364C15.3662 20.9011 12.8275 19.9266 11.8627 17.7598C11.3871 16.6915 11.3848 15.5344 11.7615 14.5183C9.83456 15.2394 7.85736 15.7949 5.81456 16.0783C5.0856 16.1785 4.34032 16.1748 3.60791 16.1569C2.9863 16.143 2.54847 15.87 2.32608 15.2745C2.11607 14.709 1.86276 14.1608 1.60475 13.6024C1.49294 13.3604 1.38025 13.1165 1.26982 12.8685C3.39721 13.1351 5.42719 12.6501 7.45078 12.0932C9.84436 11.4314 12.147 10.5173 14.3837 9.43595C16.8544 8.24189 19.2282 6.89229 21.3259 5.1292C22.0224 4.54342 22.6541 3.90317 23.1663 3.10027ZM15.7575 17.6284C15.9108 17.9726 16.3154 18.1279 16.6596 17.9747C17.0038 17.8214 17.1592 17.4168 17.0059 17.0726C16.8527 16.7284 16.448 16.573 16.1038 16.7263C15.7596 16.8795 15.6043 17.2842 15.7575 17.6284ZM15.9909 16.4774C17.1537 15.9597 18.1177 15.0005 18.6085 13.7221L17.6961 13.3719C16.9075 15.4261 14.5962 16.4551 12.542 15.6666L12.1918 16.579C13.4702 17.0697 14.8281 16.9951 15.9909 16.4774Z"
        fill="#DEDEDE" />
</svg>