<svg width="24" height="24" viewBox="0 0 24 24" fill="none" xmlns="http://www.w3.org/2000/svg">
    <path fill-rule="evenodd" clip-rule="evenodd"
        d="M20.7281 4.04839C19.5759 2.90433 18.2068 2.00194 16.7012 1.39415C15.1955 0.786371 13.5837 0.485446 11.9601 0.509039C8.91244 0.501419 5.98654 1.70481 3.8261 3.85447C1.66566 6.00414 0.447658 8.92399 0.440038 11.9717C0.432419 15.0194 1.63581 17.9453 3.78547 20.1057C5.93514 22.2662 8.85499 23.4842 11.9027 23.4918C12.5594 23.503 13.2013 23.2958 13.7275 22.9027C14.2537 22.5096 14.6344 21.9529 14.81 21.3199C14.9219 20.8629 14.9208 20.3854 14.8066 19.9289C14.6925 19.4724 14.4688 19.0505 14.155 18.6999C14.0824 18.6173 14.0351 18.5156 14.0186 18.407C14.0021 18.2983 14.0171 18.1871 14.0618 18.0867C14.1066 17.9863 14.1792 17.9008 14.2711 17.8405C14.363 17.7801 14.4703 17.7474 14.5802 17.7461H16.4763C18.2608 17.7545 19.9825 17.0874 21.2955 15.8788C22.6085 14.6702 23.4157 13.0096 23.5549 11.2305C23.5977 9.90395 23.369 8.58265 22.8829 7.34763C22.3968 6.11261 21.6635 4.98991 20.7281 4.04839ZM16.5222 15.4478H14.6261C14.0724 15.4447 13.5297 15.6023 13.0637 15.9015C12.5978 16.2008 12.2287 16.6288 12.0012 17.1336C11.7737 17.6385 11.6976 18.1985 11.7821 18.7458C11.8666 19.2931 12.1081 19.804 12.4773 20.2168C12.5491 20.2893 12.5999 20.38 12.6242 20.4792C12.6485 20.5784 12.6454 20.6823 12.6152 20.7798C12.5577 21.0212 12.2934 21.1706 11.9372 21.1935C10.6321 21.1768 9.34558 20.8824 8.16315 20.3299C6.98071 19.7773 5.92948 18.9794 5.07938 17.989C4.22928 16.9987 3.5998 15.8387 3.2328 14.5862C2.8658 13.3337 2.76971 12.0174 2.95091 10.7249C3.2786 8.55295 4.36383 6.56687 6.01466 5.11793C7.66549 3.66898 9.77555 2.85053 11.9716 2.80732H12.0636C13.3631 2.7903 14.6528 3.0337 15.8567 3.52316C17.0606 4.01262 18.1543 4.73823 19.0733 5.65718C19.7904 6.3747 20.3538 7.23076 20.7292 8.17315C21.1045 9.11555 21.284 10.1245 21.2567 11.1386C21.1377 12.3142 20.5885 13.4044 19.7146 14.1998C18.8408 14.9952 17.7038 15.4397 16.5222 15.4478ZM12.0632 7.40389C13.0152 7.40389 13.7869 6.63216 13.7869 5.68018C13.7869 4.7282 13.0152 3.95647 12.0632 3.95647C11.1113 3.95647 10.3395 4.7282 10.3395 5.68018C10.3395 6.63216 11.1113 7.40389 12.0632 7.40389ZM15.1146 7.21484C15.2653 6.90914 15.5032 6.65498 15.7984 6.48449C15.9945 6.37119 16.2111 6.29765 16.4357 6.2681C16.6602 6.23854 16.8885 6.25354 17.1072 6.31224C17.326 6.37093 17.5311 6.47218 17.7107 6.61018C17.8903 6.74819 18.041 6.92025 18.1541 7.11652C18.3243 7.41184 18.403 7.75098 18.3805 8.09107C18.358 8.43116 18.2351 8.75693 18.0275 9.02721C17.8198 9.29749 17.5367 9.50014 17.2139 9.60955C16.8911 9.71896 16.5431 9.73022 16.2139 9.6419C15.8847 9.55357 15.5891 9.36964 15.3644 9.11335C15.1397 8.85705 14.9961 8.5399 14.9516 8.20198C14.9071 7.86406 14.9638 7.52054 15.1146 7.21484ZM8.32892 6.48456C8.0336 6.3144 7.69446 6.23561 7.35437 6.25815C7.01428 6.2807 6.68851 6.40356 6.41823 6.61121C6.14795 6.81886 5.9453 7.10197 5.83589 7.42477C5.72648 7.74757 5.71522 8.09556 5.80354 8.42475C5.89186 8.75394 6.0758 9.04956 6.33209 9.27425C6.58838 9.49893 6.90554 9.64258 7.24346 9.68706C7.58138 9.73153 7.9249 9.67482 8.2306 9.52411C8.5363 9.37339 8.79046 9.13542 8.96094 8.84029C9.07425 8.64415 9.14779 8.42759 9.17734 8.203C9.2069 7.97842 9.1919 7.75021 9.1332 7.53143C9.0745 7.31264 8.97326 7.10757 8.83525 6.92794C8.69725 6.74831 8.52519 6.59765 8.32892 6.48456ZM4.72185 11.9273C4.85075 11.6115 5.07047 11.341 5.3532 11.1501C5.53993 11.0222 5.75018 10.9325 5.97178 10.8864C6.19337 10.8402 6.42192 10.8385 6.6442 10.8812C6.86648 10.924 7.07807 11.0104 7.26675 11.1354C7.45542 11.2605 7.61743 11.4217 7.7434 11.6097C7.93516 11.8919 8.03888 12.2246 8.04143 12.5657C8.04399 12.9068 7.94527 13.241 7.75777 13.526C7.57026 13.811 7.30241 14.034 6.98813 14.1666C6.67384 14.2993 6.32726 14.3357 5.99226 14.2713C5.65726 14.2069 5.34891 14.0445 5.10625 13.8047C4.86359 13.565 4.69753 13.2586 4.6291 12.9244C4.56068 12.5902 4.59295 12.2432 4.72185 11.9273Z"
        fill="#DEDEDE" />
</svg>