<svg width="36" height="36" viewBox="0 0 36 36" fill="none" xmlns="http://www.w3.org/2000/svg">
    <g clip-path="url(#clip0_428_3552)">
        <path
            d="M12.4805 16.131C11.9198 16.9253 11.9081 17.8715 12.4455 18.2453C12.9828 18.6191 13.8589 18.2804 14.4196 17.486C14.9803 16.6917 14.992 15.7455 14.4547 15.3717C13.9173 14.9979 13.0295 15.3367 12.4805 16.131Z"
            fill="#262626" />
        <path
            d="M23.7531 16.131C23.1924 15.3367 22.3163 14.9979 21.779 15.3717C21.2416 15.7455 21.265 16.6917 21.814 17.486C22.3747 18.2804 23.2508 18.6191 23.7881 18.2453C24.3255 17.8715 24.3021 16.9253 23.7531 16.131Z"
            fill="#262626" />
        <path
            d="M31.3463 23.537L31.101 22.4039C30.7856 20.9554 30.4702 19.4719 30.3301 18C30.295 17.5912 30.2717 17.1823 30.26 16.7735C30.2483 16.4698 30.2366 16.166 30.2249 15.8506V15.6754C30.1665 13.5144 30.1081 11.2832 29.1386 9.23898C27.9237 6.69244 25.1202 5.29068 22.597 5.9682C21.3237 4.95192 19.8752 4.35617 18.4267 4.25103C18.3683 4.22767 18.2866 4.19263 18.1931 4.19263C18.123 4.19263 18.0997 4.19263 18.0529 4.20431H17.9361C17.9011 4.19263 17.8544 4.19263 17.8076 4.19263C17.7375 4.19263 17.6675 4.21599 17.6675 4.22767C16.1606 4.32112 14.6887 4.92855 13.4038 5.9682C10.8806 5.29068 8.07705 6.69244 6.86218 9.23898C5.89263 11.2832 5.83422 13.5144 5.77581 15.6754V15.8506C5.76413 16.166 5.76413 16.4698 5.74077 16.7735C5.72909 17.1823 5.70573 17.5912 5.67068 18C5.54219 19.4719 5.21511 20.9671 4.89971 22.4156L4.6544 23.537C4.32732 24.9972 3.95352 26.6559 4.16378 28.2563C4.47918 30.5224 6.19634 31.7139 9.28023 31.8074H9.45545C12.0254 31.8074 13.4738 29.9734 14.4434 28.303C15.2144 28.4432 15.997 28.5132 16.8264 28.5132H17.6091C18.894 28.5249 20.2374 28.5366 21.5457 28.303C22.5152 29.9734 23.9637 31.8074 26.5336 31.8074C26.592 31.8074 26.6504 31.8074 26.7088 31.8074C29.7927 31.7139 31.5099 30.5108 31.8253 28.2563C32.0589 26.6559 31.6734 24.9972 31.3463 23.537ZM9.33863 30.0552C7.11917 29.9851 6.09121 29.3777 5.90431 28.0109C5.72909 26.7377 6.05617 25.3009 6.35988 23.9108L6.60519 22.7777C6.93227 21.2825 7.27103 19.7289 7.41121 18.1402C7.44625 17.708 7.46961 17.2641 7.49298 16.8202C7.50466 16.4464 7.51634 16.0726 7.52802 15.6988C7.57475 13.7246 7.63315 11.6804 8.45085 9.97491C9.10501 8.5965 10.4484 7.66199 11.8384 7.54518C11.6866 7.75545 11.5464 7.94235 11.4296 8.11757C9.89934 10.4422 9.37368 13.199 9.08164 15.36C9.03492 15.6754 8.99987 15.9908 8.96483 16.3062L8.94147 16.4814C8.84802 17.2407 8.75457 18.0117 8.61439 18.771L8.48589 19.4368C8.2289 20.7335 7.93687 22.1936 8.40412 23.6538C8.87138 25.1373 10.0512 26.4807 11.6282 27.3451C11.9436 27.5203 12.2823 27.6722 12.7029 27.824C11.6749 29.4478 10.6937 30.0902 9.33863 30.0552ZM18.9407 26.8194V23.9341C20.0855 23.6421 20.9266 22.8361 20.9266 21.8665C20.9266 20.6517 19.6182 19.6704 18.0062 19.6704C16.3942 19.6704 15.0859 20.6517 15.0859 21.8665C15.0859 22.9412 16.1255 23.829 17.4806 24.0159V26.7844C15.7517 26.726 13.9761 26.6325 12.4692 25.8032C11.3011 25.1607 10.4016 24.1561 10.0746 23.1165C9.74748 22.0885 9.98111 20.9087 10.2147 19.7172C10.2615 19.5069 10.2965 19.2966 10.3316 19.0864C10.4717 18.3154 10.5652 17.5211 10.6703 16.6917L10.6937 16.5048C10.7287 16.2011 10.7638 15.8857 10.8105 15.582C11.0792 13.6195 11.5581 11.0963 12.8898 9.07544C14.1514 7.1597 16.1022 5.9682 17.9945 5.94483C19.8869 5.9682 21.8494 7.17138 23.111 9.07544C24.4427 11.0963 24.9216 13.6195 25.1903 15.582C25.237 15.8857 25.272 16.2011 25.3071 16.5048L25.3421 16.7501C25.4356 17.5094 25.5407 18.3037 25.6692 19.0864C25.7042 19.2966 25.751 19.5069 25.7977 19.7756C26.0196 20.9204 26.2533 22.1002 25.9262 23.1165C25.5991 24.1561 24.6996 25.1607 23.5315 25.8032C22.0597 26.6209 20.3892 26.7961 18.9407 26.8194ZM30.0964 28.0109C29.9095 29.3777 28.8816 29.9851 26.6621 30.0552C25.3655 30.1019 24.3258 29.4127 23.3096 27.824C23.7184 27.6722 24.0689 27.5203 24.3843 27.3451C25.9612 26.4807 27.1411 25.1373 27.6083 23.6538C28.0639 22.2053 27.7835 20.7335 27.5265 19.4368L27.398 18.7827C27.2579 18.0234 27.1644 17.2407 27.071 16.4814L27.0476 16.3062C27.0126 15.9908 26.9658 15.6754 26.9308 15.36C26.6388 13.2106 26.1131 10.4422 24.5828 8.12925C24.466 7.94235 24.3258 7.76713 24.1857 7.58023C25.5758 7.69704 26.9074 8.63155 27.5616 10.01C28.3793 11.7154 28.426 13.7597 28.4844 15.7338C28.4961 16.1076 28.5078 16.4814 28.5195 16.8552C28.5428 17.2991 28.5545 17.7313 28.6012 18.1635C28.7414 19.7522 29.0802 21.3058 29.4072 22.8011L29.6526 23.9341C29.9563 25.3125 30.2717 26.7377 30.0964 28.0109Z"
            fill="#262626" />
    </g>
    <defs>
        <clipPath id="clip0_428_3552">
            <rect width="27.79" height="27.6148" fill="white" transform="translate(4.10498 4.19263)" />
        </clipPath>
    </defs>
</svg>