<svg width="24" height="24" viewBox="0 0 32 30" fill="none" xmlns="http://www.w3.org/2000/svg">
    <path fill-rule="evenodd" clip-rule="evenodd"
        d="M8.23065 21.7157H8.12943C7.98141 21.7166 7.83468 21.6882 7.69765 21.6322C7.56062 21.5763 7.43598 21.4938 7.33089 21.3896C7.2137 21.2728 7.12371 21.1316 7.06733 20.9761C7.01095 20.8206 6.98958 20.6545 7.00473 20.4898L7.48835 15.7998C7.53953 15.286 7.76589 14.8055 8.12943 14.4389L18.2518 4.31656C18.6733 3.96045 19.211 3.77169 19.7626 3.78621C20.3142 3.80073 20.8413 4.0175 21.2435 4.39529L24.3252 7.47698C24.7389 7.8712 24.9796 8.41337 24.9943 8.98469C25.0091 9.556 24.7968 10.1099 24.4039 10.5249L14.2816 20.6473C13.9149 21.0108 13.4344 21.2372 12.9207 21.2883L8.23065 21.7157ZM22.7506 9.04032L19.6801 5.96988L17.487 8.21928L20.5012 11.2335L22.7506 9.04032ZM8.12861 23.9652H23.8745C24.1728 23.9652 24.4588 24.0837 24.6698 24.2946C24.8807 24.5055 24.9992 24.7916 24.9992 25.0899C24.9992 25.3882 24.8807 25.6742 24.6698 25.8852C24.4588 26.0961 24.1728 26.2146 23.8745 26.2146H8.12861C7.83032 26.2146 7.54425 26.0961 7.33333 25.8852C7.1224 25.6742 7.00391 25.3882 7.00391 25.0899C7.00391 24.7916 7.1224 24.5055 7.33333 24.2946C7.54425 24.0837 7.83032 23.9652 8.12861 23.9652Z"
        fill="#FDAAA2" />
</svg>