<svg width="23" height="20" viewBox="0 0 23 20" fill="none" xmlns="http://www.w3.org/2000/svg">
    <path
        d="M11.6748 19.4416C11.5301 19.4424 11.3866 19.4147 11.2526 19.36C11.1186 19.3052 10.9967 19.2246 10.8939 19.1227L2.34805 10.5658C1.27609 9.48264 0.674805 8.02026 0.674805 6.49634C0.674805 4.97242 1.27609 3.51005 2.34805 2.42689C3.4284 1.34959 4.89183 0.744629 6.41751 0.744629C7.94319 0.744629 9.40662 1.34959 10.487 2.42689L11.6748 3.61473L12.8626 2.42689C13.943 1.34959 15.4064 0.744629 16.9321 0.744629C18.4578 0.744629 19.9212 1.34959 21.0016 2.42689C22.0735 3.51005 22.6748 4.97242 22.6748 6.49634C22.6748 8.02026 22.0735 9.48264 21.0016 10.5658L12.4557 19.1227C12.3529 19.2246 12.231 19.3052 12.097 19.36C11.963 19.4147 11.8196 19.4424 11.6748 19.4416Z"
        fill="#FDAAA2" />
</svg>