<svg width="24" height="24" viewBox="0 0 24 24" fill="none" xmlns="http://www.w3.org/2000/svg">
    <path fill-rule="evenodd" clip-rule="evenodd"
        d="M16.8 6.00001L20.4 6.00001C22.392 6.00001 24 7.60801 24 9.60001L24 19.2C24 21.192 22.392 22.8 20.4 22.8L3.6 22.8C1.608 22.8 0 21.192 0 19.2L0 9.60001C0 7.60801 1.608 6.00001 3.6 6.00001H7.2V4.20001C7.2 2.54401 8.544 1.20001 10.2 1.20001L13.8 1.20001C15.456 1.20001 16.8 2.54401 16.8 4.20001V6.00001ZM10.2 3.60001C9.864 3.60001 9.6 3.86401 9.6 4.20001V6.00001L14.4 6.00001V4.20001C14.4 3.86401 14.136 3.60001 13.8 3.60001L10.2 3.60001ZM20.4 20.4C21.06 20.4 21.6 19.86 21.6 19.2L21.6 9.60001C21.6 8.94001 21.06 8.40001 20.4 8.40001L3.6 8.40001C2.94 8.40001 2.4 8.94001 2.4 9.60001L2.4 19.2C2.4 19.86 2.94 20.4 3.6 20.4L20.4 20.4ZM13.1399 12.924H15.2879C15.6479 12.924 15.9359 13.212 15.9359 13.572V14.556C15.9359 14.916 15.6479 15.204 15.2879 15.204H13.1399V17.352C13.1399 17.712 12.8519 18 12.4919 18H11.5079C11.1479 18 10.8599 17.712 10.8599 17.352V15.204H8.71191C8.35191 15.204 8.06391 14.916 8.06391 14.556V13.572C8.06391 13.212 8.35191 12.924 8.71191 12.924H10.8599V10.776C10.8599 10.416 11.1479 10.128 11.5079 10.128H12.4919C12.8519 10.128 13.1399 10.416 13.1399 10.776V12.924Z"
        fill="#DEDEDE" />
</svg>