<svg width="50" height="50" viewBox="0 0 50 50" fill="none" xmlns="http://www.w3.org/2000/svg">
    <g filter="url(#filter0_d_21_964)">
        <path
            d="M25 5C21.4399 5 17.9598 6.05568 14.9997 8.03355C12.0397 10.0114 9.73255 12.8226 8.37018 16.1117C7.0078 19.4008 6.65134 23.02 7.34587 26.5116C8.04041 30.0033 9.75474 33.2106 12.2721 35.7279C14.7894 38.2453 17.9967 39.9596 21.4884 40.6541C24.98 41.3487 28.5992 40.9922 31.8883 39.6298C35.1774 38.2675 37.9886 35.9603 39.9665 33.0003C41.9443 30.0402 43 26.5601 43 23C43 20.6362 42.5344 18.2956 41.6298 16.1117C40.7253 13.9278 39.3994 11.9435 37.7279 10.2721C36.0565 8.60062 34.0722 7.27475 31.8883 6.37017C29.7044 5.46558 27.3638 5 25 5ZM25 32C24.644 32 24.296 31.8944 24 31.6966C23.704 31.4989 23.4733 31.2177 23.337 30.8888C23.2008 30.5599 23.1651 30.198 23.2346 29.8488C23.304 29.4997 23.4755 29.1789 23.7272 28.9272C23.9789 28.6755 24.2997 28.504 24.6488 28.4346C24.998 28.3651 25.3599 28.4008 25.6888 28.537C26.0177 28.6733 26.2989 28.904 26.4967 29.2C26.6944 29.496 26.8 29.844 26.8 30.2C26.8 30.6774 26.6104 31.1352 26.2728 31.4728C25.9352 31.8104 25.4774 32 25 32ZM26.8 24.8C26.8 25.2774 26.6104 25.7352 26.2728 26.0728C25.9352 26.4104 25.4774 26.6 25 26.6C24.5226 26.6 24.0648 26.4104 23.7272 26.0728C23.3896 25.7352 23.2 25.2774 23.2 24.8V15.8C23.2 15.3226 23.3896 14.8648 23.7272 14.5272C24.0648 14.1896 24.5226 14 25 14C25.4774 14 25.9352 14.1896 26.2728 14.5272C26.6104 14.8648 26.8 15.3226 26.8 15.8V24.8Z"
            fill="white" />
    </g>
    <defs>
        <filter id="filter0_d_21_964" x="0" y="0" width="50" height="50" filterUnits="userSpaceOnUse"
            color-interpolation-filters="sRGB">
            <feFlood flood-opacity="0" result="BackgroundImageFix" />
            <feColorMatrix in="SourceAlpha" type="matrix" values="0 0 0 0 0 0 0 0 0 0 0 0 0 0 0 0 0 0 127 0"
                result="hardAlpha" />
            <feOffset dy="2" />
            <feGaussianBlur stdDeviation="3.5" />
            <feComposite in2="hardAlpha" operator="out" />
            <feColorMatrix type="matrix" values="0 0 0 0 0.0392157 0 0 0 0 0.0392157 0 0 0 0 0.0392157 0 0 0 0.07 0" />
            <feBlend mode="normal" in2="BackgroundImageFix" result="effect1_dropShadow_21_964" />
            <feBlend mode="normal" in="SourceGraphic" in2="effect1_dropShadow_21_964" result="shape" />
        </filter>
    </defs>
</svg>