<svg width="24" height="24" viewBox="0 0 24 24" fill="none" xmlns="http://www.w3.org/2000/svg">
    <path
        d="M13.6446 11.999L18.66 6.99527C18.8796 6.77564 19.003 6.47775 19.003 6.16715C19.003 5.85654 18.8796 5.55866 18.66 5.33902C18.4404 5.11939 18.1425 4.996 17.8319 4.996C17.5213 4.996 17.2234 5.11939 17.0037 5.33902L12 10.3544L6.99626 5.33902C6.77662 5.11939 6.47874 4.996 6.16813 4.996C5.85752 4.996 5.55964 5.11939 5.34001 5.33902C5.12037 5.55866 4.99699 5.85654 4.99699 6.16715C4.99699 6.47775 5.12037 6.77564 5.34001 6.99527L10.3554 11.999L5.34001 17.0028C5.23068 17.1112 5.14391 17.2402 5.0847 17.3823C5.02548 17.5244 4.995 17.6769 4.995 17.8309C4.995 17.9848 5.02548 18.1373 5.0847 18.2794C5.14391 18.4216 5.23068 18.5506 5.34001 18.659C5.44844 18.7683 5.57744 18.8551 5.71957 18.9143C5.8617 18.9735 6.01416 19.004 6.16813 19.004C6.32211 19.004 6.47456 18.9735 6.61669 18.9143C6.75882 18.8551 6.88783 18.7683 6.99626 18.659L12 13.6436L17.0037 18.659C17.1122 18.7683 17.2412 18.8551 17.3833 18.9143C17.5254 18.9735 17.6779 19.004 17.8319 19.004C17.9858 19.004 18.1383 18.9735 18.2804 18.9143C18.4226 18.8551 18.5516 18.7683 18.66 18.659C18.7693 18.5506 18.8561 18.4216 18.9153 18.2794C18.9745 18.1373 19.005 17.9848 19.005 17.8309C19.005 17.6769 18.9745 17.5244 18.9153 17.3823C18.8561 17.2402 18.7693 17.1112 18.66 17.0028L13.6446 11.999Z"
        fill="#262626" />
</svg>