<svg width="24" height="24" viewBox="0 0 24 24" fill="none" xmlns="http://www.w3.org/2000/svg">
    <path
        d="M20.7071 19.2871L17.3071 15.8971C18.4041 14.4996 18.9993 12.7738 18.9971 10.9971C18.9971 9.41485 18.5279 7.86814 17.6488 6.55254C16.7698 5.23695 15.5204 4.21157 14.0585 3.60607C12.5967 3.00057 10.9882 2.84214 9.43635 3.15082C7.8845 3.4595 6.45904 4.22143 5.34022 5.34025C4.2214 6.45907 3.45947 7.88453 3.15079 9.43638C2.84211 10.9882 3.00054 12.5968 3.60604 14.0586C4.21154 15.5204 5.23692 16.7698 6.55251 17.6489C7.8681 18.5279 9.41482 18.9971 10.9971 18.9971C12.7737 18.9993 14.4995 18.4041 15.8971 17.3071L19.2871 20.7071C19.38 20.8008 19.4906 20.8752 19.6125 20.926C19.7344 20.9768 19.8651 21.0029 19.9971 21.0029C20.1291 21.0029 20.2598 20.9768 20.3817 20.926C20.5035 20.8752 20.6141 20.8008 20.7071 20.7071C20.8008 20.6141 20.8752 20.5035 20.926 20.3817C20.9767 20.2598 21.0029 20.1291 21.0029 19.9971C21.0029 19.8651 20.9767 19.7344 20.926 19.6125C20.8752 19.4907 20.8008 19.3801 20.7071 19.2871ZM4.99707 10.9971C4.99707 9.81042 5.34897 8.65038 6.00826 7.66368C6.66754 6.67699 7.60462 5.90795 8.70097 5.45383C9.79733 4.9997 11.0037 4.88088 12.1676 5.11239C13.3315 5.3439 14.4006 5.91535 15.2397 6.75446C16.0788 7.59358 16.6503 8.66268 16.8818 9.82656C17.1133 10.9904 16.9945 12.1968 16.5404 13.2932C16.0862 14.3896 15.3172 15.3266 14.3305 15.9859C13.3438 16.6452 12.1838 16.9971 10.9971 16.9971C9.40578 16.9971 7.87965 16.365 6.75443 15.2397C5.62922 14.1145 4.99707 12.5884 4.99707 10.9971Z"
        fill="white" />
</svg>